<svg xmlns="http://www.w3.org/2000/svg" xmlns:xlink="http://www.w3.org/1999/xlink" width="250" zoomAndPan="magnify" viewBox="0 0 187.5 187.499992" height="250" preserveAspectRatio="xMidYMid meet" version="1.0"><defs><clipPath id="ef81d0aa70"><path d="M 0 3.707031 L 187 3.707031 L 187 181 L 0 181 Z M 0 3.707031 " clip-rule="nonzero"/></clipPath></defs><path fill="#ccffbb" d="M 43.59375 45.601562 C 39.503906 48.421875 35.863281 51.738281 32.671875 55.550781 C 29.484375 59.359375 26.859375 63.527344 24.808594 68.050781 C 21.578125 75.1875 19.9375 82.945312 18.660156 90.65625 C 17.128906 99.953125 16.105469 109.53125 18.058594 118.75 C 19.527344 125.6875 22.648438 132.179688 26.210938 138.308594 C 29.710938 144.3125 33.976562 150.300781 40.25 153.304688 C 46.417969 156.261719 53.605469 155.902344 60.414062 155.234375 C 78.808594 153.429688 97.160156 149.800781 115.609375 150.878906 C 119.703125 151.117188 123.796875 151.589844 127.894531 151.429688 C 131.070312 151.238281 134.222656 150.855469 137.355469 150.285156 C 141.824219 149.570312 146.484375 148.78125 150.140625 146.113281 C 151.847656 144.863281 153.25 143.257812 154.636719 141.671875 C 160.539062 134.925781 166.640625 127.808594 168.699219 119.09375 C 169.582031 115.367188 169.679688 111.503906 169.769531 107.675781 C 169.984375 98.796875 170.171875 89.730469 167.5 81.261719 C 165.546875 75.070312 162.382812 64.019531 158.769531 58.625 C 154.867188 52.816406 149.769531 50.445312 144.4375 45.863281 C 134.320312 37.214844 121.453125 35.363281 108.15625 34.652344 C 94.859375 33.941406 81.597656 36.234375 68.542969 38.832031 " fill-opacity="1" fill-rule="nonzero"/><path fill="#ccffbb" d="M 120.585938 73.328125 C 120.585938 73.605469 120.546875 73.882812 120.53125 74.15625 L 120.515625 74.15625 Z M 120.585938 73.328125 " fill-opacity="1" fill-rule="nonzero"/><path fill="#ffc089" d="M 118.355469 58.390625 C 118.332031 58.046875 117.503906 56.964844 117.152344 56.84375 C 112.441406 55.261719 107.316406 55.746094 102.367188 56.246094 C 97.550781 56.734375 80.546875 57.261719 79.179688 57.046875 C 76.714844 56.664062 74.328125 56.71875 71.859375 56.332031 L 70.449219 56.332031 C 70.324219 59.484375 70.195312 62.636719 70.066406 65.789062 C 69.992188 67.582031 69.917969 69.375 69.988281 71.175781 C 70.214844 77.285156 69.84375 83.417969 72.53125 88.917969 C 73.46875 90.828125 75.945312 92.964844 77.585938 94.320312 C 78.59375 95.15625 83.566406 98.136719 84.828125 98.753906 C 86.269531 99.46875 88.488281 99.285156 90.0625 99.609375 C 90.351562 99.707031 90.628906 99.679688 90.898438 99.539062 C 90.984375 99.476562 93.503906 100.070312 94.742188 100.011719 C 99.386719 99.8125 103.765625 98.628906 107.878906 96.464844 C 109.164062 95.820312 110.324219 95.003906 111.367188 94.015625 C 112.566406 92.816406 116.742188 84.453125 117.539062 81.59375 C 119.625 74.09375 118.984375 66.148438 118.355469 58.390625 Z M 102.71875 87.0625 C 101.777344 88.589844 100.074219 89.460938 98.386719 90.074219 C 96.113281 90.898438 93.769531 91.386719 91.355469 91.535156 C 91.382812 91.867188 90.523438 91.410156 90.234375 91.257812 C 87.746094 89.945312 85.390625 89.109375 84.289062 86.53125 C 83.675781 85.101562 83.789062 83.097656 85.175781 82.394531 C 85.761719 82.144531 86.371094 82.035156 87.007812 82.074219 L 99.066406 81.820312 C 100.054688 81.796875 101.097656 81.792969 101.949219 82.296875 C 103.484375 83.21875 103.660156 85.539062 102.71875 87.0625 Z M 102.71875 87.0625 " fill-opacity="1" fill-rule="nonzero"/><path fill="#ffc089" d="M 113.0625 101.285156 C 111.871094 99.5 110.71875 98.398438 110.386719 96.148438 C 110.289062 95.53125 109.457031 95.429688 109.070312 95.800781 C 105.542969 99.167969 98.820312 99.90625 94.179688 99.925781 C 89.023438 99.933594 84.128906 98.816406 79.488281 96.570312 C 79.507812 95.671875 78.113281 95.320312 77.960938 96.273438 C 77.667969 98.160156 76.914062 99.835938 75.691406 101.300781 C 75.132812 102.007812 74.519531 102.628906 74.425781 103.570312 C 74.234375 105.523438 76.53125 107.613281 77.769531 108.851562 C 81.753906 112.824219 88.648438 113.980469 94.050781 114.21875 C 99.636719 114.46875 105.230469 112.863281 109.101562 108.679688 C 109.996094 107.714844 110.78125 106.652344 111.574219 105.605469 C 112.222656 104.757812 113.484375 103.625 113.484375 102.453125 C 113.484375 102.011719 113.34375 101.621094 113.0625 101.285156 Z M 113.0625 101.285156 " fill-opacity="1" fill-rule="nonzero"/><path fill="#52993a" d="M 71.492188 99.015625 C 67.996094 100.542969 64.132812 101.382812 60.640625 102.925781 C 58.257812 103.972656 56.230469 105.742188 54.105469 107.242188 C 50.527344 109.769531 46.925781 112.535156 44.722656 116.316406 C 39.1875 125.832031 36.339844 137.542969 35.742188 148.527344 C 35.691406 149.40625 35.359375 150.308594 35.613281 151.144531 C 36.320312 153.128906 37.519531 154.746094 39.210938 156 C 41.8125 157.976562 44.699219 160.742188 47.238281 162.796875 C 48.839844 164.15625 50.542969 165.378906 52.339844 166.46875 C 63.601562 172.917969 76.128906 178.425781 89.085938 179.230469 C 98.425781 179.804688 107.65625 177.34375 116.6875 174.898438 C 114.820312 173.90625 112.808594 172.75 112.078125 170.769531 C 111.773438 169.746094 111.664062 168.703125 111.761719 167.636719 C 111.984375 161.179688 112.988281 154.847656 114.777344 148.640625 C 115.292969 146.847656 115.871094 144.90625 115.179688 143.171875 C 114.699219 141.960938 113.632812 141 113.386719 139.734375 C 113.003906 137.75 114.730469 135.917969 114.75 133.894531 C 114.75 132.367188 113.835938 130.753906 114.582031 129.429688 C 115.136719 128.445312 116.386719 128.113281 117.21875 127.339844 C 117.769531 126.753906 118.1875 126.085938 118.472656 125.335938 C 121.96875 117.554688 125.355469 109.390625 126.386719 100.925781 C 123.78125 99.941406 120.097656 98.921875 117.421875 98.160156 C 117.0625 98.011719 116.707031 98.011719 116.351562 98.160156 C 116.015625 98.417969 115.828125 98.757812 115.789062 99.179688 C 113.851562 106.949219 106.328125 111.234375 98.910156 114.273438 C 96.152344 115.417969 87.488281 114.539062 86.078125 113.566406 C 83.175781 111.574219 79.808594 110.335938 76.898438 108.359375 C 73.992188 106.382812 71.445312 103.3125 71.519531 99.792969 " fill-opacity="1" fill-rule="nonzero"/><path fill="#52993a" d="M 134.894531 104.5625 C 133.15625 108.976562 131.707031 113.476562 130.542969 118.074219 C 130.304688 119.003906 130.082031 119.980469 130.273438 120.917969 C 130.65625 122.800781 132.523438 123.929688 133.816406 125.351562 C 135.90625 127.640625 136.566406 130.863281 137.398438 133.863281 C 137.710938 134.984375 138.074219 136.152344 138.855469 136.996094 C 139.453125 137.59375 140.128906 138.089844 140.878906 138.488281 C 145.597656 141.328125 149.941406 144.660156 153.910156 148.480469 C 155.789062 146.34375 157.398438 144.027344 158.746094 141.527344 C 159.097656 140.988281 159.28125 140.398438 159.296875 139.757812 C 159.25 138.890625 158.589844 138.195312 158.015625 137.542969 C 156.671875 136.007812 155.605469 134.300781 154.8125 132.417969 C 154.019531 130.539062 153.542969 128.582031 153.382812 126.546875 C 153.285156 125.226562 153.316406 123.875 152.890625 122.617188 C 152.445312 121.507812 151.824219 120.503906 151.023438 119.613281 C 146.441406 113.941406 141.117188 109.085938 135.042969 105.046875 " fill-opacity="1" fill-rule="nonzero"/><path fill="#ffc089" d="M 138.949219 138.5 C 137.300781 136.789062 136.078125 135.292969 135.375 133.203125 C 135.898438 127.710938 132.171875 122 126.453125 121.1875 C 124.15625 120.867188 121.453125 121.496094 119.953125 123.363281 C 118.878906 124.703125 119.074219 126.75 117.921875 127.917969 C 117.0625 128.792969 115.765625 129.148438 115.152344 130.289062 C 114.621094 131.277344 114.800781 132.199219 115.023438 133.246094 C 115.269531 134.394531 115.433594 134.820312 115.070312 135.957031 C 114.867188 136.601562 114.574219 137.171875 114.371094 137.800781 C 114.132812 138.375 113.988281 138.96875 113.933594 139.589844 C 113.890625 142.671875 116.507812 142.609375 118.800781 142.261719 C 119.96875 142.074219 121.132812 142.097656 122.292969 142.328125 C 123.453125 142.5625 124.535156 142.992188 125.542969 143.613281 C 127.515625 144.839844 128.414062 146.726562 129.746094 148.511719 C 131.082031 150.300781 133.140625 151.566406 135.421875 150.46875 C 138.074219 149.171875 140.199219 145.085938 140.390625 142.246094 C 140.445312 141.546875 140.347656 140.867188 140.097656 140.210938 C 139.84375 139.554688 139.460938 138.984375 138.949219 138.5 Z M 138.949219 138.5 " fill-opacity="1" fill-rule="nonzero"/><path fill="#6b503b" d="M 118.21875 144.121094 C 116.664062 145.394531 116.511719 147.65625 116.121094 149.621094 C 115.46875 152.890625 113.867188 155.878906 112.648438 158.984375 C 111.429688 162.089844 110.585938 165.535156 111.519531 168.734375 C 111.980469 170.300781 112.972656 171.835938 114.511719 172.390625 C 115.3125 172.632812 116.128906 172.722656 116.960938 172.660156 C 118.984375 172.617188 121.085938 172.410156 122.800781 171.339844 C 124.511719 170.269531 125.691406 168.097656 125.019531 166.191406 C 124.402344 164.421875 122.476562 163.433594 121.582031 161.777344 C 120.742188 160.230469 120.933594 158.34375 121.21875 156.621094 C 121.824219 152.890625 122.75 149.246094 123.996094 145.679688 C 124.179688 145.152344 124.378906 144.578125 124.191406 144.050781 C 123.917969 143.238281 122.929688 142.941406 122.078125 142.839844 C 120.804688 142.679688 119.527344 142.679688 118.253906 142.839844 " fill-opacity="1" fill-rule="nonzero"/><path fill="#6b503b" d="M 129.148438 121.894531 C 133.085938 111.148438 136.238281 100.179688 138.601562 88.980469 C 138.796875 88.054688 138.984375 87.070312 138.660156 86.183594 C 138.105469 84.65625 136.332031 84.011719 134.765625 83.5625 C 134.34375 83.382812 133.914062 83.371094 133.480469 83.527344 C 133.203125 83.707031 132.992188 83.945312 132.855469 84.242188 C 129.636719 89.816406 128.054688 96.160156 126.507812 102.410156 L 123.3125 115.359375 C 122.898438 117.03125 122.65625 119.175781 124.078125 120.128906 C 125.320312 120.957031 127.183594 120.335938 128.347656 121.273438 " fill-opacity="1" fill-rule="nonzero"/><path fill="#6b503b" d="M 133.871094 73.011719 L 131.410156 78.289062 C 131.152344 78.839844 129.882812 80.886719 130.234375 81.371094 C 130.367188 81.554688 131.871094 82.089844 132.066406 82.203125 C 134.703125 83.695312 137.210938 83.175781 140.066406 84.175781 C 141.242188 84.585938 142.777344 84.855469 143.539062 83.871094 C 143.777344 83.507812 143.933594 83.113281 144.003906 82.683594 C 144.5 80.648438 144.980469 78.605469 145.449219 76.554688 C 145.609375 76.085938 145.617188 75.613281 145.476562 75.140625 C 145.285156 74.777344 145.011719 74.488281 144.660156 74.28125 C 143.25 73.292969 141.726562 72.535156 140.085938 72.007812 C 138.449219 71.480469 136.769531 71.207031 135.046875 71.1875 " fill-opacity="1" fill-rule="nonzero"/><path fill="#ffc035" d="M 33.554688 78.421875 C 29.765625 78.421875 25.867188 80.65625 22.414062 82.003906 C 21.210938 82.472656 19.664062 82.847656 18.546875 83.613281 C 18.800781 80.460938 18.851562 77.292969 18.222656 74.1875 C 17.628906 71.265625 16.355469 67.203125 13.210938 66.167969 C 13 66.113281 12.800781 66.136719 12.613281 66.246094 C 12.425781 66.351562 12.300781 66.511719 12.242188 66.71875 C 11.21875 73.046875 10.273438 80.664062 15.222656 85.707031 C 15.664062 86.15625 16.140625 86.5625 16.652344 86.929688 C 16.652344 86.988281 16.652344 87.039062 16.652344 87.09375 C 16.570312 87.824219 17.382812 88.019531 17.871094 87.6875 C 18.835938 88.1875 19.851562 88.554688 20.917969 88.78125 C 21.984375 89.003906 23.058594 89.085938 24.144531 89.019531 C 25.234375 88.949219 26.292969 88.738281 27.320312 88.382812 C 28.351562 88.027344 29.3125 87.539062 30.210938 86.921875 C 31.480469 86.027344 32.679688 85.042969 33.808594 83.976562 C 34.679688 83.179688 36.402344 81.863281 36.707031 80.613281 C 37.164062 78.746094 34.992188 78.417969 33.554688 78.421875 Z M 33.554688 78.421875 " fill-opacity="1" fill-rule="nonzero"/><path fill="#ffc035" d="M 30.28125 99.472656 C 29.996094 96.035156 26.242188 98.789062 24.808594 99.855469 C 21.535156 102.324219 19.023438 105.414062 17.269531 109.117188 C 16.335938 108.316406 15.269531 107.734375 14.351562 106.855469 C 13.203125 105.746094 12.414062 104.316406 11.199219 103.238281 C 8.980469 101.273438 6.128906 100.203125 3.398438 99.167969 C 2.75 98.921875 2.15625 99.773438 2.507812 100.3125 C 6.042969 105.871094 9.867188 115.066406 17.644531 115.050781 C 17.820312 115.054688 17.976562 115.007812 18.113281 114.902344 C 18.25 114.792969 18.339844 114.65625 18.375 114.488281 C 24.652344 112.683594 30.84375 106.355469 30.28125 99.472656 Z M 30.28125 99.472656 " fill-opacity="1" fill-rule="nonzero"/><path fill="#ffc035" d="M 31.300781 119.355469 C 30.5 119.816406 29.65625 121.328125 29.164062 122.050781 C 28.1875 123.507812 27.339844 125.035156 26.625 126.632812 C 25.503906 129.171875 24.742188 131.816406 24.332031 134.5625 C 22.359375 132.605469 20.125 131.011719 17.628906 129.785156 C 15.136719 128.558594 12.511719 127.757812 9.753906 127.386719 C 9.625 127.371094 9.5 127.386719 9.378906 127.425781 C 9.253906 127.464844 9.144531 127.53125 9.050781 127.617188 C 8.957031 127.707031 8.882812 127.808594 8.832031 127.925781 C 8.785156 128.046875 8.761719 128.171875 8.765625 128.300781 C 8.207031 127.851562 7.171875 128.261719 7.5 129.0625 C 9.792969 134.613281 14.605469 138.652344 20.65625 139.414062 C 23.273438 139.753906 26.867188 139.660156 29.121094 138.085938 C 31.371094 136.511719 32.625 133.304688 33.417969 130.832031 C 33.945312 129.164062 35.902344 116.695312 31.300781 119.355469 Z M 31.300781 119.355469 " fill-opacity="1" fill-rule="nonzero"/><path fill="#ffc035" d="M 61.65625 81.324219 C 61.542969 81.140625 61.382812 81.023438 61.175781 80.96875 C 60.964844 80.914062 60.765625 80.9375 60.578125 81.042969 C 58.40625 82.414062 57.445312 84.585938 56.792969 87 C 55.8125 90.632812 55.015625 94.335938 54.160156 98.007812 C 51.765625 96.183594 50.042969 93.472656 47.191406 92.28125 C 43.828125 90.878906 39.414062 91.054688 35.839844 90.667969 C 35.113281 90.59375 34.871094 91.554688 35.28125 92.011719 C 38.023438 95.027344 40.601562 98.597656 44.484375 100.1875 C 48.039062 101.640625 51.9375 101.503906 55.640625 100.789062 C 55.777344 100.785156 55.90625 100.753906 56.023438 100.6875 C 59.359375 98.859375 61.378906 95.675781 62.269531 92.042969 C 63.078125 88.78125 63.84375 84.195312 61.65625 81.324219 Z M 61.65625 81.324219 " fill-opacity="1" fill-rule="nonzero"/><path fill="#ffc035" d="M 179.992188 129.488281 C 178.5 126.949219 173.859375 128.722656 171.910156 129.441406 C 168.683594 130.613281 165.777344 132.328125 163.191406 134.585938 C 163.164062 133.015625 162.964844 131.464844 162.589844 129.9375 C 162.214844 128.410156 161.675781 126.941406 160.972656 125.535156 C 160.269531 124.128906 159.414062 122.816406 158.417969 121.601562 C 157.417969 120.386719 156.292969 119.296875 155.050781 118.332031 C 154.648438 118.023438 153.824219 118.019531 153.730469 118.679688 C 152.65625 126.457031 154.457031 134.566406 161.308594 139.164062 C 161.460938 139.277344 161.632812 139.316406 161.820312 139.285156 C 162.007812 139.257812 162.15625 139.164062 162.265625 139.003906 C 162.414062 139.230469 162.625 139.324219 162.890625 139.292969 C 167.207031 139.019531 171.246094 137.824219 175.015625 135.707031 C 176.746094 134.730469 181.601562 132.222656 179.992188 129.488281 Z M 179.992188 129.488281 " fill-opacity="1" fill-rule="nonzero"/><path fill="#ffc035" d="M 186.507812 99.761719 C 186.503906 99.546875 186.425781 99.363281 186.273438 99.210938 C 186.121094 99.058594 185.9375 98.980469 185.722656 98.972656 C 182.597656 98.589844 178.761719 102.175781 176.4375 103.902344 C 173.863281 105.757812 171.625 107.957031 169.730469 110.5 C 168.171875 106.90625 165.976562 103.75 163.144531 101.035156 C 161.726562 99.6875 157.027344 95.175781 156.335938 99.394531 C 155.707031 103.234375 158.335938 107.496094 160.539062 110.371094 C 163.117188 113.730469 166.304688 115.886719 170.609375 114.789062 C 170.808594 114.980469 171.042969 115.039062 171.3125 114.96875 C 175.191406 114.074219 179.015625 113.019531 181.820312 110.003906 C 184.363281 107.292969 186.683594 103.605469 186.507812 99.761719 Z M 186.507812 99.761719 " fill-opacity="1" fill-rule="nonzero"/><path fill="#ffc035" d="M 176.292969 69.070312 C 174.507812 65.714844 171.878906 69.371094 170.863281 71.335938 C 169.996094 73.03125 169.464844 74.828125 169.273438 76.722656 C 169.035156 79.0625 169.554688 81.386719 169.214844 83.6875 C 167.976562 82.761719 166.660156 81.964844 165.265625 81.296875 C 163.871094 80.625 162.425781 80.097656 160.929688 79.710938 C 159.433594 79.320312 157.910156 79.082031 156.367188 78.988281 C 154.824219 78.894531 153.285156 78.953125 151.75 79.160156 C 151.238281 79.226562 150.664062 79.804688 151.070312 80.34375 C 152.035156 81.636719 153.136719 82.796875 154.375 83.828125 C 155.617188 84.859375 156.960938 85.734375 158.40625 86.445312 C 159.855469 87.160156 161.367188 87.695312 162.9375 88.050781 C 164.511719 88.40625 166.105469 88.570312 167.722656 88.550781 C 167.984375 88.742188 168.257812 88.761719 168.542969 88.605469 L 168.734375 88.507812 L 168.90625 88.507812 C 169.226562 88.492188 169.449219 88.339844 169.574219 88.050781 C 171.027344 87.207031 172.3125 86.15625 173.429688 84.90625 C 174.546875 83.652344 175.441406 82.257812 176.113281 80.722656 C 177.5625 77.347656 178.078125 72.433594 176.292969 69.070312 Z M 176.292969 69.070312 " fill-opacity="1" fill-rule="nonzero"/><path fill="#ffc035" d="M 146.679688 52.59375 C 142.859375 44.515625 136.121094 38.601562 129.402344 32.925781 C 125.765625 29.871094 122.21875 26.738281 118.796875 23.425781 C 115.375 20.117188 111.496094 17.417969 107.441406 14.8125 L 100.632812 10.441406 C 98.550781 9.101562 96.199219 6.976562 93.8125 6.277344 C 92.261719 5.828125 90.941406 6.613281 89.605469 7.339844 C 87.371094 8.566406 85.1875 9.882812 83.042969 11.261719 C 74.742188 16.59375 67.222656 22.863281 60.488281 30.074219 C 56.566406 34.273438 53.289062 39.300781 48.78125 42.902344 C 45.855469 45.238281 42.28125 47.132812 40.960938 50.734375 C 40.511719 50.660156 40.042969 50.898438 40.121094 51.46875 C 40.527344 54.554688 45.742188 54.523438 48.058594 54.875 C 52.339844 55.449219 56.640625 55.710938 60.957031 55.660156 C 70.515625 55.660156 80.03125 55.125 89.605469 55.765625 C 99.179688 56.402344 108.761719 57.558594 118.378906 57.527344 C 122.707031 57.539062 127.015625 57.238281 131.300781 56.625 C 136.175781 55.898438 141.03125 53.820312 145.964844 53.777344 C 146.273438 53.789062 146.507812 53.660156 146.667969 53.394531 C 146.828125 53.128906 146.832031 52.863281 146.679688 52.59375 Z M 146.679688 52.59375 " fill-opacity="1" fill-rule="nonzero"/><path fill="#6b503b" d="M 132.945312 73.761719 C 129.242188 72.074219 125.363281 71.375 121.304688 71.65625 C 120.792969 71.652344 120.3125 71.777344 119.871094 72.039062 C 119.230469 72.503906 119.085938 73.386719 119 74.175781 C 118.488281 78.664062 117.992188 83.148438 117.5 87.632812 C 117.15625 90.742188 115.792969 95.210938 118.109375 97.316406 C 119.410156 98.496094 122.414062 98.054688 124.113281 98.523438 C 127.332031 99.417969 130.398438 100.679688 133.316406 102.304688 C 136.234375 103.929688 138.921875 105.875 141.375 108.140625 C 142.160156 108.871094 143.246094 109.691406 144.203125 109.191406 C 144.589844 108.945312 144.886719 108.617188 145.09375 108.210938 C 148.851562 102.164062 151.851562 95.761719 154.097656 89.011719 C 154.382812 88.335938 154.511719 87.632812 154.480469 86.902344 C 154.386719 86.066406 153.886719 85.339844 153.40625 84.65625 C 150.695312 80.792969 147.140625 76.496094 142.429688 76.773438 " fill-opacity="1" fill-rule="nonzero"/><path fill="#52993a" d="M 142.75 140.484375 C 142 142.90625 140.835938 145.113281 139.261719 147.101562 C 137.683594 149.089844 135.800781 150.726562 133.613281 152.015625 C 132.828125 152.472656 131.9375 152.96875 131.699219 153.839844 C 131.464844 154.710938 132.019531 155.679688 132.566406 156.460938 C 135.597656 160.773438 138.738281 165.046875 142.503906 168.726562 C 146.273438 172.410156 150.75 175.503906 155.792969 177.058594 C 157.671875 177.644531 159.675781 178.011719 161.609375 177.636719 C 165.363281 176.90625 168.132812 173.4375 169.050781 169.734375 C 169.96875 166.035156 169.359375 162.121094 168.457031 158.414062 C 166.964844 152.28125 164.742188 146.425781 161.78125 140.851562 L 158.488281 144.472656 C 157.03125 146.082031 155.089844 147.835938 152.996094 147.265625 C 152.410156 147.074219 151.867188 146.792969 151.367188 146.429688 L 143.542969 141.320312 " fill-opacity="1" fill-rule="nonzero"/><path fill="#8c4038" d="M 85.585938 81.980469 C 85.488281 84.898438 84.9375 87.933594 87.34375 89.589844 C 89.746094 91.25 95.03125 91.46875 97.726562 90.355469 C 98.398438 90.066406 99.027344 89.699219 99.609375 89.253906 C 100.191406 88.808594 100.710938 88.300781 101.167969 87.726562 C 101.625 87.152344 102.003906 86.535156 102.308594 85.867188 C 102.609375 85.199219 102.828125 84.507812 102.960938 83.789062 C 100.042969 83.488281 97.097656 83.828125 94.167969 83.886719 C 91.234375 83.945312 88.195312 83.691406 85.597656 82.328125 " fill-opacity="1" fill-rule="nonzero"/><path fill="#ffffff" d="M 103.910156 84.230469 C 103.664062 82.015625 98.078125 81.90625 96.773438 81.734375 C 92.445312 81.152344 88.167969 80.925781 83.878906 81.890625 C 82.886719 82.113281 83.308594 83.628906 84.292969 83.417969 L 84.472656 83.378906 L 85.011719 84.386719 C 84.492188 84.695312 84.417969 85.636719 85.171875 85.835938 C 89.191406 86.914062 93.269531 87.214844 97.40625 86.734375 C 98.71875 86.566406 104.148438 86.414062 103.910156 84.230469 Z M 103.910156 84.230469 " fill-opacity="1" fill-rule="nonzero"/><path fill="#ffc089" d="M 120.429688 64.332031 C 119.613281 64.28125 119.457031 65.292969 119.957031 65.722656 L 119.84375 65.859375 C 119.746094 65.777344 119.632812 65.722656 119.503906 65.695312 C 119.375 65.671875 119.25 65.679688 119.125 65.71875 C 119.003906 65.753906 118.894531 65.820312 118.804688 65.914062 C 118.714844 66.007812 118.652344 66.117188 118.617188 66.242188 C 118.289062 67.59375 118.121094 68.96875 118.113281 70.363281 C 118.113281 71.417969 118.113281 73.535156 118.671875 74.476562 C 119.417969 75.734375 120.792969 74.898438 121.679688 74.097656 C 124.039062 71.921875 124.839844 64.621094 120.429688 64.332031 Z M 120.429688 64.332031 " fill-opacity="1" fill-rule="nonzero"/><path fill="#ffc089" d="M 70.09375 68.011719 C 70.074219 67.878906 70.027344 67.757812 69.953125 67.648438 C 69.878906 67.539062 69.785156 67.449219 69.671875 67.382812 C 69.558594 67.3125 69.433594 67.273438 69.300781 67.261719 C 69.171875 67.25 69.042969 67.265625 68.917969 67.3125 L 68.894531 67.273438 C 69.613281 66.824219 69.199219 65.515625 68.304688 65.835938 C 66.34375 66.539062 65.390625 68.210938 64.820312 70.136719 C 64.101562 72.546875 64.820312 74.535156 66.605469 76.292969 C 67.90625 77.578125 69.007812 77.5 69.839844 75.835938 C 71.066406 73.375 70.40625 70.582031 70.09375 68.011719 Z M 70.09375 68.011719 " fill-opacity="1" fill-rule="nonzero"/><path fill="#967259" d="M 116.910156 144.355469 C 114.667969 149.957031 113.199219 155.757812 112.503906 161.753906 C 111.980469 166.289062 112.175781 172.0625 117.527344 173.441406 C 119.492188 173.949219 120.335938 170.914062 118.367188 170.410156 C 113.511719 169.15625 115.671875 160.863281 116.316406 157.476562 C 117.132812 153.265625 118.34375 149.171875 119.945312 145.191406 C 120.707031 143.308594 117.648438 142.492188 116.910156 144.355469 Z M 116.910156 144.355469 " fill-opacity="1" fill-rule="nonzero"/><path fill="#967259" d="M 125.53125 119.917969 C 129.285156 108.585938 131.796875 96.882812 134.636719 85.28125 C 135.113281 83.3125 132.078125 82.476562 131.597656 84.445312 C 128.757812 96.042969 126.246094 107.738281 122.496094 119.082031 C 121.855469 121.007812 124.894531 121.835938 125.53125 119.917969 Z M 125.53125 119.917969 " fill-opacity="1" fill-rule="nonzero"/><path fill="#967259" d="M 133.894531 71.246094 C 132.4375 74.421875 131.277344 77.707031 130.425781 81.09375 C 129.933594 83.0625 132.96875 83.902344 133.464844 81.933594 C 134.234375 78.800781 135.285156 75.769531 136.617188 72.832031 C 137.453125 71.003906 134.738281 69.394531 133.894531 71.246094 Z M 133.894531 71.246094 " fill-opacity="1" fill-rule="nonzero"/><path fill="#447233" d="M 59.164062 167.976562 L 59.164062 160.394531 C 59.164062 155.886719 59.398438 151.316406 58.429688 146.882812 C 58.253906 146.074219 57.148438 146.203125 56.898438 146.882812 C 54.652344 153.273438 52.921875 159.800781 51.714844 166.46875 C 51.550781 167.378906 52.816406 167.808594 53.164062 167.097656 L 57.238281 169.578125 C 57.109375 169.722656 57.054688 169.886719 57.074219 170.078125 C 57.09375 170.269531 57.179688 170.421875 57.335938 170.535156 L 57.570312 170.726562 C 57.699219 170.847656 57.851562 170.921875 58.027344 170.945312 C 58.203125 170.964844 58.371094 170.933594 58.523438 170.847656 C 59.515625 170.183594 59.164062 169.0625 59.164062 167.976562 Z M 59.164062 167.976562 " fill-opacity="1" fill-rule="nonzero"/><path fill="#447233" d="M 167.117188 173.5 C 160.046875 176.382812 153.207031 172.355469 148.382812 167.269531 C 143.765625 162.414062 139.898438 156.769531 136.476562 151.027344 C 136.363281 150.84375 136.203125 150.726562 135.992188 150.671875 C 135.785156 150.617188 135.585938 150.640625 135.398438 150.742188 C 133.972656 151.34375 132.617188 152.074219 131.335938 152.941406 C 131.160156 153.058594 131.050781 153.222656 131 153.425781 C 130.953125 153.632812 130.984375 153.824219 131.089844 154.007812 C 131.089844 154.207031 131.160156 154.375 131.300781 154.515625 C 136.960938 160.664062 140.9375 168.417969 147.738281 173.492188 C 153.5625 177.847656 161.78125 179.601562 167.878906 174.816406 C 168.488281 174.339844 167.828125 173.207031 167.117188 173.5 Z M 167.117188 173.5 " fill-opacity="1" fill-rule="nonzero"/><path fill="#447233" d="M 136.039062 126.050781 C 136.421875 122.496094 137.640625 118.914062 138.476562 115.4375 C 139.433594 111.472656 140.507812 105.207031 135.082031 104.054688 C 134.871094 104.007812 134.675781 104.035156 134.488281 104.140625 C 134.300781 104.246094 134.175781 104.402344 134.113281 104.605469 C 132.285156 109.1875 130.5 113.839844 128.996094 118.546875 C 128.554688 119.945312 128.402344 120.859375 129.199219 122.136719 C 130.269531 123.839844 131.804688 125.363281 133.074219 126.921875 C 133.167969 127.054688 133.296875 127.140625 133.457031 127.171875 C 133.617188 127.207031 133.769531 127.179688 133.910156 127.097656 L 134.453125 128.5 C 134.453125 128.621094 134.488281 128.738281 134.507812 128.851562 C 134.984375 131.636719 136.09375 134.390625 136.921875 137.082031 C 137.222656 138.046875 138.742188 137.636719 138.453125 136.664062 C 137.414062 133.304688 135.652344 129.558594 136.039062 126.050781 Z M 136.039062 126.050781 " fill-opacity="1" fill-rule="nonzero"/><path fill="#447233" d="M 135.53125 162.324219 C 134.640625 159.316406 132.207031 157.042969 131.328125 154.046875 C 130.5625 151.40625 131.179688 148.773438 129.328125 146.527344 C 129.269531 146.449219 129.195312 146.386719 129.109375 146.339844 C 129.023438 146.292969 128.933594 146.269531 128.835938 146.261719 C 128.738281 146.257812 128.644531 146.273438 128.554688 146.308594 C 128.460938 146.34375 128.382812 146.398438 128.316406 146.46875 C 127.910156 145.492188 127.324219 144.636719 126.5625 143.898438 C 126.40625 143.707031 126.203125 143.628906 125.957031 143.660156 C 125.898438 143.535156 125.804688 143.445312 125.679688 143.382812 C 125.558594 143.320312 125.429688 143.300781 125.292969 143.324219 C 123.933594 143.464844 123.1875 144.203125 122.917969 145.578125 C 122.433594 148.074219 122.464844 150.675781 121.957031 153.195312 C 121.421875 155.824219 120.042969 162.328125 123.382812 163.9375 C 123.480469 163.984375 123.585938 164.023438 123.695312 164.050781 C 124.257812 166.101562 125.578125 167.898438 124.839844 170.132812 C 124.804688 170.269531 124.808594 170.40625 124.84375 170.542969 C 124.878906 170.675781 124.949219 170.792969 125.046875 170.894531 C 125.148438 170.996094 125.265625 171.0625 125.402344 171.101562 C 125.535156 171.136719 125.671875 171.136719 125.808594 171.101562 C 128.570312 170.339844 132.328125 169.480469 134.65625 167.710938 C 136.25 166.488281 136.042969 164.0625 135.53125 162.324219 Z M 135.53125 162.324219 " fill-opacity="1" fill-rule="nonzero"/><path fill="#447233" d="M 98.503906 154.515625 C 94.679688 151.949219 90.855469 149.480469 87.414062 146.410156 C 87.324219 146.328125 87.222656 146.273438 87.105469 146.238281 C 86.988281 146.203125 86.871094 146.195312 86.753906 146.214844 C 86.632812 146.234375 86.523438 146.277344 86.421875 146.34375 C 86.324219 146.410156 86.242188 146.496094 86.179688 146.601562 L 85.199219 146.074219 C 85.128906 145.832031 85.0625 145.59375 85.007812 145.347656 C 84.769531 144.363281 83.246094 144.777344 83.476562 145.769531 C 85.507812 154.238281 95.792969 160.640625 104.054688 161.1875 C 104.269531 161.183594 104.453125 161.105469 104.605469 160.953125 C 104.757812 160.800781 104.835938 160.617188 104.839844 160.398438 C 105.054688 157.867188 100.25 155.691406 98.503906 154.515625 Z M 98.503906 154.515625 " fill-opacity="1" fill-rule="nonzero"/><path fill="#447233" d="M 93.625 178.46875 C 92.832031 175.691406 90.042969 174.066406 87.832031 172.445312 C 84.601562 170.074219 81.308594 167.828125 78.464844 164.980469 C 78.382812 164.898438 78.285156 164.835938 78.171875 164.800781 C 78.0625 164.761719 77.949219 164.746094 77.832031 164.761719 C 77.714844 164.773438 77.605469 164.8125 77.507812 164.878906 C 77.410156 164.941406 77.328125 165.023438 77.265625 165.125 L 76.582031 164.679688 C 76.515625 164.410156 76.457031 164.136719 76.410156 163.863281 C 76.25 162.867188 74.734375 163.289062 74.882812 164.28125 C 75.527344 168.324219 78.898438 172.101562 81.824219 174.796875 C 84.882812 177.628906 88.613281 179.480469 92.851562 179.464844 C 92.976562 179.464844 93.09375 179.4375 93.203125 179.386719 C 93.316406 179.332031 93.40625 179.253906 93.484375 179.15625 C 93.558594 179.058594 93.609375 178.949219 93.632812 178.828125 C 93.660156 178.707031 93.65625 178.589844 93.625 178.46875 Z M 93.625 178.46875 " fill-opacity="1" fill-rule="nonzero"/><path fill="#dd9f72" d="M 110.660156 96.015625 C 110.660156 95.875 110.621094 95.742188 110.550781 95.621094 C 110.480469 95.503906 110.382812 95.40625 110.261719 95.335938 C 110.140625 95.269531 110.007812 95.234375 109.867188 95.234375 C 109.726562 95.234375 109.597656 95.269531 109.476562 95.339844 C 107.867188 96.320312 106.179688 97.140625 104.410156 97.792969 C 102.644531 98.445312 100.828125 98.921875 98.96875 99.21875 C 97.105469 99.519531 95.234375 99.632812 93.347656 99.5625 C 91.464844 99.496094 89.605469 99.246094 87.769531 98.8125 C 85.851562 98.363281 84 97.710938 82.222656 96.859375 C 81.375 96.449219 80.414062 95.683594 79.433594 95.710938 C 78.457031 95.742188 78.261719 96.1875 77.847656 97.046875 C 76.753906 99.300781 75.738281 100.863281 73.46875 102.132812 C 73.28125 102.242188 73.160156 102.402344 73.105469 102.609375 C 73.050781 102.820312 73.078125 103.015625 73.183594 103.203125 C 73.8125 104.378906 74.449219 105.554688 75.097656 106.730469 C 75.246094 107 75.476562 107.128906 75.785156 107.121094 C 76.097656 107.113281 76.316406 106.96875 76.453125 106.691406 C 76.675781 106.773438 76.886719 106.75 77.085938 106.617188 C 81.710938 103.832031 86.757812 106.636719 91.585938 107.140625 C 96.246094 107.628906 100.351562 106.050781 104.785156 104.914062 C 106.53125 104.46875 107.625 104.671875 109.253906 105.371094 C 109.914062 105.65625 110.90625 106.289062 111.644531 106.207031 C 112.457031 106.109375 112.882812 105.664062 113.226562 104.859375 C 114.605469 101.578125 110.574219 99.101562 110.660156 96.015625 Z M 110.660156 96.015625 " fill-opacity="1" fill-rule="nonzero"/><path fill="#dd9f72" d="M 119.339844 59.128906 C 118.0625 56.765625 115.578125 56.148438 113.054688 56 C 108.339844 55.726562 103.519531 56.050781 98.800781 56.09375 L 69.425781 56.355469 C 68.414062 56.355469 68.410156 57.9375 69.425781 57.929688 L 69.609375 57.929688 L 69.820312 58.84375 C 69.125 59.027344 68.933594 60.167969 69.785156 60.351562 C 77.972656 62.097656 86.285156 63.316406 94.667969 63.496094 C 102.621094 63.667969 111.429688 63.375 118.871094 60.285156 C 118.984375 60.25 119.089844 60.191406 119.179688 60.109375 C 119.269531 60.027344 119.335938 59.929688 119.382812 59.820312 C 119.425781 59.707031 119.445312 59.589844 119.4375 59.46875 C 119.433594 59.347656 119.398438 59.234375 119.339844 59.128906 Z M 119.339844 59.128906 " fill-opacity="1" fill-rule="nonzero"/><path fill="#d39c2d" d="M 144.652344 46.863281 C 144.515625 46.75 144.363281 46.6875 144.191406 46.675781 C 144.015625 46.660156 143.855469 46.699219 143.707031 46.792969 C 143.464844 46.675781 143.234375 46.699219 143.023438 46.863281 C 136.347656 51.421875 128.253906 52.109375 120.382812 52.28125 C 111.757812 52.472656 103.125 52.527344 94.5 52.523438 C 77.144531 52.523438 59.488281 52.355469 42.722656 47.351562 C 42.550781 47.308594 42.382812 47.320312 42.21875 47.386719 C 42.054688 47.453125 41.925781 47.5625 41.835938 47.714844 C 40.757812 49.457031 40.21875 51.347656 40.222656 53.398438 C 40.222656 53.574219 40.273438 53.734375 40.382812 53.875 C 40.488281 54.019531 40.628906 54.113281 40.800781 54.160156 C 61.867188 57.035156 83.132812 57.570312 104.367188 57.558594 C 114.863281 57.558594 125.5625 57.992188 136.011719 56.859375 C 138.253906 56.628906 140.480469 56.28125 142.6875 55.8125 C 144.152344 55.492188 145.925781 55.167969 146.976562 53.976562 C 149.222656 51.441406 146.648438 48.496094 144.652344 46.863281 Z M 144.652344 46.863281 " fill-opacity="1" fill-rule="nonzero"/><path fill="#81c469" d="M 72.539062 101.007812 C 72.433594 101.039062 72.335938 101.078125 72.230469 101.113281 L 71.722656 100.460938 C 71.859375 100.339844 71.941406 100.191406 71.976562 100.011719 C 72.007812 99.832031 71.984375 99.660156 71.902344 99.5 C 71.820312 99.335938 71.699219 99.214844 71.535156 99.132812 C 71.371094 99.054688 71.199219 99.03125 71.019531 99.070312 C 59.859375 101.472656 48.886719 107.582031 43.109375 117.664062 C 40.222656 122.730469 38.3125 128.394531 36.554688 133.9375 C 34.515625 140.386719 34.644531 147.335938 34.996094 154.03125 C 35.035156 154.75 36.097656 155.175781 36.464844 154.414062 C 38.757812 149.710938 40.128906 144.660156 41.84375 139.738281 C 43.78125 134.195312 45.988281 128.726562 48.882812 123.605469 C 54.328125 113.980469 62.265625 105.992188 72.96875 102.507812 C 73.914062 102.210938 73.503906 100.691406 72.539062 101.007812 Z M 72.539062 101.007812 " fill-opacity="1" fill-rule="nonzero"/><path fill="#81c469" d="M 127.734375 102.3125 C 126.972656 98.585938 124.085938 98.207031 120.796875 97.621094 C 119.507812 97.394531 116.929688 96.601562 115.683594 97.285156 C 114.539062 97.914062 114.1875 99.785156 113.726562 100.898438 C 113.683594 100.992188 113.664062 101.09375 113.667969 101.199219 C 113.671875 101.304688 113.699219 101.40625 113.753906 101.496094 C 113.804688 101.585938 113.878906 101.660156 113.964844 101.71875 C 114.054688 101.777344 114.152344 101.808594 114.257812 101.816406 C 114.082031 102.304688 114.308594 102.910156 114.949219 102.832031 C 119.210938 102.316406 123.402344 102.65625 127.527344 103.847656 C 128.132812 104.023438 127.851562 102.882812 127.734375 102.3125 Z M 127.734375 102.3125 " fill-opacity="1" fill-rule="nonzero"/><path fill="#ffd580" d="M 104.457031 21.539062 C 102.398438 18.183594 99.632812 15.582031 96.160156 13.726562 C 92.265625 11.695312 89.640625 13.09375 86.273438 15.496094 C 79.117188 20.609375 72.179688 26.078125 66.867188 33.144531 C 64.84375 35.234375 62.878906 37.386719 61.011719 39.613281 C 59.902344 40.929688 58.667969 42.335938 59.414062 44.117188 C 59.449219 44.234375 59.503906 44.335938 59.585938 44.421875 C 59.667969 44.511719 59.765625 44.578125 59.875 44.625 C 59.984375 44.667969 60.101562 44.6875 60.222656 44.683594 C 60.339844 44.675781 60.453125 44.644531 60.558594 44.585938 C 63.75 43.128906 66.328125 40.242188 69.023438 38.042969 C 72.355469 35.296875 75.828125 32.730469 79.429688 30.347656 C 82.703125 28.191406 86.125 26.308594 89.695312 24.695312 C 92.058594 23.644531 94.332031 22.726562 96.960938 22.632812 C 99.238281 22.550781 101.480469 22.910156 103.761719 22.722656 C 103.90625 22.722656 104.035156 22.6875 104.160156 22.617188 C 104.28125 22.546875 104.378906 22.453125 104.449219 22.328125 C 104.519531 22.207031 104.554688 22.078125 104.558594 21.9375 C 104.558594 21.792969 104.523438 21.664062 104.457031 21.539062 Z M 104.457031 21.539062 " fill-opacity="1" fill-rule="nonzero"/><g clip-path="url(#ef81d0aa70)"><path fill="#3f2622" d="M 181.769531 126.941406 C 177.257812 125.792969 171.710938 127.253906 167.363281 130.167969 C 168.988281 125.910156 170.238281 121.542969 171.109375 117.066406 C 171.1875 117 171.257812 116.929688 171.320312 116.851562 C 179.488281 115.785156 186.941406 106.734375 187.417969 98.734375 C 187.417969 98.523438 187.375 98.324219 187.296875 98.132812 C 187.214844 97.941406 187.101562 97.769531 186.953125 97.625 C 186.808594 97.476562 186.636719 97.363281 186.445312 97.28125 C 186.253906 97.203125 186.050781 97.160156 185.84375 97.160156 C 181.144531 97.433594 176.222656 100.550781 172.957031 104.699219 C 173.394531 99.347656 173.082031 94.039062 172.011719 88.773438 C 178.511719 83.699219 180.285156 72.113281 176.628906 65.011719 C 176.523438 64.832031 176.386719 64.679688 176.21875 64.554688 C 176.054688 64.429688 175.871094 64.339844 175.667969 64.289062 C 175.464844 64.234375 175.261719 64.222656 175.054688 64.246094 C 174.847656 64.273438 174.652344 64.339844 174.472656 64.445312 C 171.238281 66.605469 168.875 70.523438 167.753906 74.773438 C 165.871094 69.625 163.472656 64.734375 160.554688 60.089844 C 156.878906 54.230469 152.507812 48.945312 147.445312 44.226562 C 142.382812 39.511719 136.796875 35.527344 130.6875 32.273438 C 129.1875 30.972656 127.703125 29.660156 126.25 28.371094 C 117.859375 20.933594 109.277344 13.480469 100.011719 7.117188 C 98.046875 5.769531 95.511719 3.695312 92.984375 3.859375 C 89.925781 4.070312 86.8125 6.375 84.363281 8.023438 C 74.910156 14.394531 66.3125 22.195312 58.054688 30.015625 C 56.667969 31.332031 56.0625 31.925781 54.699219 33.242188 L 53.761719 33.726562 C 49.859375 35.996094 46.183594 38.582031 42.726562 41.480469 C 39.269531 44.378906 36.085938 47.546875 33.171875 50.992188 C 30.261719 54.4375 27.664062 58.101562 25.378906 61.992188 C 23.097656 65.878906 21.164062 69.933594 19.578125 74.152344 C 18.402344 70.144531 16.113281 66.515625 13.035156 64.445312 C 12.851562 64.339844 12.660156 64.273438 12.453125 64.246094 C 12.246094 64.222656 12.039062 64.234375 11.839844 64.285156 C 11.636719 64.339844 11.453125 64.429688 11.285156 64.554688 C 11.117188 64.679688 10.980469 64.832031 10.875 65.011719 C 7.226562 72.113281 9.011719 83.699219 15.496094 88.773438 C 14.425781 94.039062 14.109375 99.347656 14.550781 104.699219 C 11.285156 100.550781 6.363281 97.445312 1.664062 97.160156 C 1.453125 97.160156 1.253906 97.199219 1.058594 97.277344 C 0.863281 97.355469 0.691406 97.46875 0.542969 97.617188 C 0.394531 97.765625 0.28125 97.9375 0.199219 98.128906 C 0.117188 98.320312 0.078125 98.523438 0.078125 98.734375 C 0.546875 106.660156 7.855469 115.597656 15.933594 116.808594 C 16.789062 121.253906 18.019531 125.59375 19.613281 129.828125 C 15.355469 127.15625 10.054688 125.84375 5.726562 126.941406 C 4.964844 127.128906 4.324219 128.085938 4.625 128.875 C 7.457031 136.261719 17.035156 142.566406 25.082031 141.375 C 25.742188 142.519531 26.429688 143.648438 27.148438 144.753906 C 27.867188 145.863281 28.609375 146.953125 29.382812 148.027344 C 30.15625 149.097656 30.953125 150.148438 31.777344 151.179688 C 32.601562 152.214844 33.453125 153.222656 34.328125 154.210938 C 35.203125 155.203125 36.105469 156.167969 37.027344 157.113281 C 37.953125 158.054688 38.898438 158.976562 39.871094 159.875 C 40.839844 160.769531 41.832031 161.640625 42.847656 162.488281 C 43.859375 163.335938 44.894531 164.15625 45.949219 164.949219 C 47.003906 165.746094 48.082031 166.515625 49.175781 167.253906 C 50.269531 167.996094 51.378906 168.710938 52.507812 169.394531 C 53.640625 170.082031 54.785156 170.738281 55.949219 171.367188 C 57.109375 171.992188 58.289062 172.59375 59.480469 173.160156 C 60.675781 173.730469 61.878906 174.269531 63.101562 174.777344 C 64.320312 175.285156 65.550781 175.765625 66.796875 176.210938 C 68.039062 176.660156 69.292969 177.074219 70.558594 177.457031 C 71.824219 177.84375 73.097656 178.195312 74.378906 178.515625 C 75.664062 178.835938 76.953125 179.125 78.25 179.378906 C 79.546875 179.632812 80.847656 179.859375 82.15625 180.046875 C 83.464844 180.238281 84.777344 180.394531 86.09375 180.519531 C 87.40625 180.644531 88.726562 180.738281 90.046875 180.796875 C 91.367188 180.855469 92.6875 180.878906 94.011719 180.871094 C 95.332031 180.867188 96.652344 180.824219 97.972656 180.75 C 99.292969 180.675781 100.609375 180.570312 101.925781 180.429688 C 103.238281 180.292969 104.550781 180.121094 105.855469 179.914062 C 107.160156 179.707031 108.460938 179.472656 109.753906 179.199219 C 111.050781 178.929688 112.335938 178.628906 113.613281 178.292969 C 114.890625 177.957031 116.160156 177.589844 117.421875 177.191406 C 118.683594 176.792969 119.933594 176.363281 121.171875 175.902344 C 122.410156 175.441406 123.636719 174.953125 124.851562 174.429688 C 126.0625 173.90625 127.265625 173.355469 128.449219 172.773438 C 129.636719 172.1875 130.808594 171.578125 131.960938 170.9375 C 133.117188 170.292969 134.257812 169.625 135.378906 168.925781 C 136.367188 168.308594 137.34375 167.660156 138.308594 166.992188 C 139.867188 168.722656 141.507812 170.378906 143.226562 171.953125 C 148.253906 176.535156 154.914062 181.078125 162.085938 179.691406 C 169.367188 178.28125 171.429688 169.789062 171.386719 163.398438 C 171.335938 155.59375 168.214844 148.363281 164.730469 141.515625 C 172.214844 141.359375 180.304688 135.542969 182.863281 128.859375 C 183.167969 128.09375 182.53125 127.128906 181.769531 126.941406 Z M 183.980469 100.617188 C 182.734375 106.027344 177.710938 112.050781 172.359375 113.480469 C 172.925781 108.101562 178.558594 102.054688 183.980469 100.617188 Z M 3.519531 100.617188 C 8.949219 102.054688 14.582031 108.09375 15.140625 113.480469 C 9.78125 112.050781 4.761719 106.027344 3.519531 100.617188 Z M 168.011719 113.523438 C 163.164062 111.335938 159.0625 104.738281 159.003906 99.394531 C 163.230469 101.5625 167.195312 106.507812 168.320312 111.332031 C 168.222656 112.054688 168.117188 112.785156 168.003906 113.523438 Z M 174.632812 68.359375 C 176.316406 73.648438 175.082031 81.402344 171.191406 85.351562 C 171.160156 85.285156 171.136719 85.214844 171.109375 85.148438 C 171.046875 84.933594 170.980469 84.71875 170.914062 84.5 C 170.867188 84.367188 170.804688 84.238281 170.726562 84.121094 C 169.226562 79.167969 170.980469 72.035156 174.625 68.359375 Z M 168.058594 90.691406 C 168.617188 94.421875 168.898438 98.175781 168.902344 101.949219 C 168.902344 102.859375 168.878906 103.769531 168.84375 104.679688 C 166.289062 100.441406 162.304688 96.9375 158.050781 95.597656 C 157.851562 95.546875 157.644531 95.53125 157.441406 95.558594 C 157.234375 95.585938 157.039062 95.652344 156.859375 95.753906 C 156.675781 95.855469 156.523438 95.988281 156.394531 96.152344 C 156.265625 96.316406 156.171875 96.496094 156.113281 96.699219 C 154.707031 104.09375 160.175781 113.972656 167.429688 116.699219 C 166.535156 121.191406 165.238281 125.570312 163.546875 129.828125 C 162.507812 124.679688 159.621094 119.71875 155.753906 116.996094 C 155.078125 116.519531 153.980469 116.867188 153.601562 117.566406 C 153.3125 118.097656 153.066406 118.652344 152.859375 119.222656 C 150.945312 116.242188 148.742188 113.488281 146.25 110.972656 C 150.195312 103.550781 153.722656 95.9375 156.835938 88.132812 C 160.359375 90.113281 164.433594 91.148438 168.058594 90.691406 Z M 160.382812 137.453125 C 160.382812 137.492188 160.359375 137.539062 160.347656 137.582031 C 156.019531 134.269531 153.976562 126.269531 155.597656 120.921875 C 159.21875 124.503906 161.507812 131.054688 160.65625 136.195312 C 160.511719 136.601562 160.417969 137.019531 160.382812 137.453125 Z M 124.625 133.792969 C 122.398438 132.871094 119.214844 133.03125 116.539062 134.035156 C 116.367188 133.546875 116.253906 133.042969 116.195312 132.53125 C 116.0625 130.550781 117.097656 130.328125 118.648438 130.019531 C 121.0625 129.542969 123.4375 129.929688 125.714844 130.785156 C 127.625 131.515625 128.429688 128.46875 126.554688 127.753906 C 124.554688 126.976562 122.484375 126.597656 120.335938 126.605469 C 120.417969 125.140625 120.742188 123.628906 122.304688 123.136719 C 123.75 122.679688 125.597656 123.097656 127.007812 123.460938 C 130.71875 124.417969 132.410156 126.742188 133.273438 130.335938 C 134.226562 134.320312 135.109375 138.863281 139.027344 140.710938 C 138.492188 145.171875 136.808594 149.363281 132.367188 150.507812 C 130.070312 145.925781 126.996094 140.941406 121.277344 140.605469 C 120.179688 140.535156 119.117188 140.691406 118.085938 141.070312 C 116.652344 141.617188 116.175781 142.941406 115.15625 141.152344 C 112.761719 136.875 121.273438 135.777344 123.769531 136.808594 C 125.65625 137.609375 126.472656 134.5625 124.625 133.792969 Z M 115.472656 95.882812 L 115.304688 95.863281 C 115.070312 95.820312 114.839844 95.84375 114.617188 95.933594 C 114.394531 96.023438 114.214844 96.167969 114.074219 96.363281 C 113.609375 96.652344 113.382812 97.070312 113.390625 97.617188 C 113.375 98.316406 113.296875 99.011719 113.160156 99.699219 C 112.195312 98.523438 112.066406 96.789062 111.972656 95.246094 C 113.316406 94.011719 114.515625 92.652344 115.566406 91.160156 C 115.507812 92.75 115.441406 94.324219 115.472656 95.882812 Z M 112.035156 102.929688 C 109.261719 108.464844 102.695312 112.214844 96.839844 112.9375 C 89.363281 113.863281 79.285156 110.578125 75.671875 103.492188 C 76.996094 102.5 78.171875 101.257812 78.597656 99.617188 C 78.746094 99.050781 78.859375 98.480469 78.941406 97.902344 C 81.480469 99.550781 84.226562 100.703125 87.179688 101.367188 C 95.054688 103.140625 102.933594 101.6875 109.054688 97.550781 C 109.425781 99.703125 110.191406 101.71875 112.042969 102.945312 Z M 111.992188 90.785156 C 102.75 102.417969 81.347656 101.859375 74.109375 88.246094 C 71.855469 84.019531 71.550781 78.617188 71.007812 73.957031 C 70.769531 71.917969 70.585938 69.867188 70.484375 67.808594 C 70.613281 67.617188 70.691406 67.402344 70.71875 67.171875 C 71.140625 64.085938 71.914062 61.089844 73.035156 58.179688 C 73.054688 58.136719 73.058594 58.089844 73.074219 58.042969 C 76.046875 58.105469 79.015625 58.152344 81.984375 58.1875 C 93.222656 58.320312 104.460938 58.265625 115.6875 57.960938 C 116.609375 61.683594 117.179688 65.460938 117.394531 69.289062 C 117.402344 69.628906 117.511719 69.929688 117.722656 70.195312 C 117.574219 73.828125 117.171875 77.433594 116.515625 81.011719 C 115.824219 84.648438 114.320312 87.914062 112.003906 90.800781 Z M 67.367188 68.011719 C 67.441406 69.539062 67.554688 71.054688 67.710938 72.5625 C 67.804688 73.460938 67.890625 74.382812 67.984375 75.316406 C 66.761719 74.316406 66.121094 72.261719 66.148438 70.917969 C 66.152344 69.78125 66.558594 68.8125 67.367188 68.011719 Z M 120.585938 73.355469 L 120.765625 70.226562 C 120.828125 68.835938 120.863281 67.445312 120.875 66.054688 C 122.222656 66.742188 122.65625 68.960938 122.484375 70.28125 C 122.398438 70.929688 122.191406 71.535156 121.859375 72.097656 C 121.527344 72.660156 121.097656 73.132812 120.570312 73.519531 Z M 118.703125 85.792969 C 118.695312 85.664062 118.671875 85.535156 118.632812 85.410156 C 118.632812 85.367188 118.671875 85.328125 118.6875 85.285156 C 119.632812 82.769531 120.046875 79.976562 120.300781 77.207031 C 122.109375 76.496094 123.53125 75.316406 124.5625 73.667969 C 126.332031 73.820312 128.101562 73.980469 129.875 74.164062 C 129.128906 76.226562 128.554688 78.332031 128.160156 80.488281 C 128.121094 80.664062 128.117188 80.839844 128.140625 81.019531 C 128.042969 81.226562 127.992188 81.449219 127.984375 81.679688 C 127.980469 81.910156 128.023438 82.132812 128.109375 82.347656 C 128.199219 82.558594 128.328125 82.746094 128.496094 82.90625 C 128.664062 83.066406 128.855469 83.183594 129.074219 83.261719 C 129.636719 83.457031 130.203125 83.640625 130.773438 83.835938 C 129.265625 88.6875 127.820312 93.5625 126.4375 98.453125 C 123.886719 97.5625 121.289062 96.871094 118.632812 96.382812 C 118.519531 92.828125 118.984375 89.300781 118.703125 85.765625 Z M 128.566406 102.628906 L 129.402344 99.617188 C 130.800781 94.671875 132.261719 89.734375 133.785156 84.816406 C 134.898438 85.148438 136.015625 85.46875 137.136719 85.757812 L 137.296875 85.800781 C 136.070312 91.042969 134.710938 96.253906 133.3125 101.457031 L 132.480469 104.511719 C 131.039062 109.855469 129.582031 115.171875 128.222656 120.523438 C 126.875 120.09375 125.496094 119.859375 124.082031 119.820312 C 125.492188 114.046875 126.988281 108.304688 128.566406 102.601562 Z M 144.046875 76.105469 C 144.214844 77.441406 143.324219 79.566406 143.007812 80.886719 C 142.835938 81.601562 142.816406 82.601562 142.261719 83.121094 C 141.707031 83.640625 141.011719 83.464844 140.308594 83.292969 C 140.128906 83.101562 139.910156 82.984375 139.652344 82.941406 C 137.449219 82.550781 135.308594 81.9375 133.234375 81.101562 C 132.953125 81 132.671875 81 132.394531 81.101562 C 132.042969 80.980469 131.6875 80.867188 131.335938 80.722656 C 131.855469 78.152344 132.914062 72.921875 135.324219 72.820312 C 136.710938 72.765625 138.601562 73.65625 139.914062 74.09375 C 140.679688 74.335938 141.421875 74.601562 142.160156 74.890625 C 142.6875 75.089844 143.21875 75.304688 143.738281 75.535156 C 144.550781 75.648438 144.652344 75.828125 144.046875 76.078125 Z M 146.269531 80.765625 C 146.386719 80.257812 146.582031 79.621094 146.78125 78.976562 C 147.554688 79.261719 148.289062 79.621094 148.988281 80.0625 C 150.191406 82.585938 151.914062 84.6875 154.160156 86.363281 C 151.144531 94.003906 147.71875 101.453125 143.875 108.714844 C 141.476562 106.578125 138.898438 104.679688 136.148438 103.019531 C 137.625 97.535156 139.070312 92.035156 140.351562 86.496094 C 141.625 86.703125 142.90625 86.726562 143.945312 86.222656 C 145.769531 85.339844 145.867188 82.519531 146.269531 80.742188 Z M 136.117188 128.722656 C 135.308594 125.726562 133.785156 123.273438 131.148438 121.746094 C 132.464844 116.535156 133.878906 111.34375 135.289062 106.152344 C 141.839844 110.300781 151.726562 123.246094 151.953125 123.371094 C 151.414062 129.628906 154.015625 136.84375 158.757812 140.300781 C 157.242188 142.679688 155.476562 144.859375 153.464844 146.835938 C 149.335938 143.902344 145.492188 140.640625 141.925781 137.046875 C 141.753906 136.878906 141.554688 136.757812 141.332031 136.679688 C 141.105469 136.605469 140.871094 136.582031 140.636719 136.609375 C 140.398438 136.640625 140.179688 136.71875 139.980469 136.847656 C 139.78125 136.976562 139.617188 137.144531 139.492188 137.347656 C 137.085938 135.480469 136.859375 131.472656 136.117188 128.722656 Z M 167.285156 86.339844 C 167.375 86.746094 167.445312 87.167969 167.527344 87.585938 C 162.273438 88.175781 155.292969 84.660156 152.484375 80.011719 C 157.539062 79.730469 164.015625 82.269531 167.285156 86.339844 Z M 165.9375 80.949219 C 161.375 77.75 155.285156 76.191406 150.261719 77.132812 C 149.355469 76.601562 148.398438 76.171875 147.398438 75.84375 C 147.449219 75.273438 147.355469 74.722656 147.128906 74.195312 C 146.332031 72.574219 143.183594 71.90625 141.640625 71.355469 C 139.4375 70.589844 136.589844 69.375 134.210938 69.546875 C 133.125 69.625 132.230469 70.25 131.492188 71.171875 C 129.53125 70.964844 127.570312 70.777344 125.609375 70.605469 C 125.65625 70.226562 125.675781 69.84375 125.671875 69.460938 C 125.597656 66.816406 124.164062 63.863281 121.660156 62.96875 C 122.195312 61.292969 122.652344 59.589844 123.035156 57.867188 C 123.035156 57.839844 123.035156 57.816406 123.035156 57.789062 C 129.589844 57.574219 136.160156 57.242188 142.640625 56.363281 C 144.402344 56.128906 146.761719 56.003906 148.289062 54.964844 C 150.347656 53.558594 148.898438 51.273438 147.78125 49.753906 L 147.574219 49.488281 C 151.886719 53.894531 155.597656 58.761719 158.707031 64.085938 C 161.8125 69.410156 164.222656 75.03125 165.9375 80.949219 Z M 146.25 53.117188 C 146.464844 53.1875 145.949219 53.296875 146.25 53.117188 Z M 42.230469 51.589844 C 43.101562 50.3125 44.050781 49.089844 45.070312 47.925781 C 48.074219 44.390625 51.3125 41.050781 54.601562 37.777344 C 54.816406 37.558594 55.035156 37.355469 55.246094 37.136719 C 55.363281 37.046875 55.46875 36.941406 55.5625 36.824219 C 63.210938 29.179688 71.277344 22.003906 79.761719 15.296875 C 83.019531 12.753906 86.382812 10.199219 90.046875 8.246094 C 91.015625 7.734375 92.125 7.101562 93.238281 6.996094 C 93.421875 6.972656 93.417969 6.957031 93.8125 7.097656 C 94.214844 7.269531 94.609375 7.464844 94.992188 7.679688 C 102.992188 12.039062 110.105469 18.648438 116.992188 24.511719 C 120.6875 27.652344 124.363281 30.835938 127.96875 34.09375 C 127.96875 34.09375 129.472656 35.792969 130.394531 36.304688 C 134.0625 39.691406 137.65625 43.179688 141.097656 46.785156 C 142.308594 48.054688 143.507812 49.34375 144.605469 50.71875 C 144.863281 51.035156 145.433594 51.945312 145.824219 52.539062 C 145.234375 52.695312 144.65625 52.871094 144.050781 52.980469 C 136.972656 54.273438 129.574219 54.363281 122.40625 54.628906 C 111.816406 55.011719 101.214844 55.15625 90.613281 55.128906 C 83.734375 55.128906 76.851562 55.035156 70 54.839844 C 69.554688 54.625 69.101562 54.609375 68.640625 54.796875 C 65.65625 54.710938 62.664062 54.597656 59.671875 54.457031 C 53.828125 54.179688 47.273438 54.347656 41.597656 52.664062 C 41.785156 52.285156 41.996094 51.929688 42.230469 51.589844 Z M 19.707031 87.023438 C 22.765625 82.5625 29.683594 79.722656 35.019531 80.011719 C 32.15625 84.769531 24.894531 88.34375 19.605469 87.542969 C 19.636719 87.367188 19.671875 87.195312 19.707031 87.023438 Z M 17.28125 81.246094 C 16.898438 82.59375 16.59375 83.957031 16.300781 85.328125 C 12.421875 81.375 11.199219 73.636719 12.875 68.359375 C 15.847656 71.371094 17.570312 76.703125 17.28125 81.246094 Z M 19.125 113.699219 C 19.074219 113.351562 19.023438 113 18.96875 112.640625 C 19.601562 107.417969 23.898438 101.757812 28.527344 99.390625 C 28.445312 104.878906 24.128906 111.6875 19.117188 113.691406 Z M 8.488281 129.707031 C 13.570312 129.480469 20.027344 132.703125 22.777344 137.046875 C 22.996094 137.496094 23.226562 137.949219 23.457031 138.398438 C 17.945312 138.609375 11.292969 134.492188 8.488281 129.707031 Z M 27.179688 137.566406 C 27.164062 137.539062 27.152344 137.511719 27.140625 137.484375 C 25.609375 132.207031 27.980469 124.8125 31.914062 120.921875 C 33.523438 126.265625 31.480469 134.25 27.167969 137.566406 Z M 28.742188 140.308594 C 35.082031 135.6875 37.59375 124.347656 33.910156 117.566406 C 33.804688 117.386719 33.667969 117.234375 33.5 117.109375 C 33.335938 116.984375 33.152344 116.894531 32.949219 116.839844 C 32.75 116.789062 32.546875 116.773438 32.339844 116.800781 C 32.132812 116.828125 31.9375 116.894531 31.757812 116.996094 C 27.726562 119.828125 24.761719 125.089844 23.84375 130.464844 C 22.597656 127.191406 21.515625 123.863281 20.605469 120.484375 C 20.328125 119.472656 20.070312 118.453125 19.839844 117.429688 L 19.714844 116.828125 C 27.152344 114.3125 32.847656 104.226562 31.410156 96.6875 C 31.351562 96.484375 31.261719 96.304688 31.132812 96.140625 C 31.003906 95.976562 30.847656 95.84375 30.667969 95.738281 C 30.484375 95.636719 30.289062 95.570312 30.082031 95.546875 C 29.878906 95.519531 29.671875 95.53125 29.472656 95.585938 C 25 96.996094 20.832031 100.789062 18.296875 105.320312 C 18.246094 104.195312 18.222656 103.066406 18.222656 101.9375 C 18.222656 98.148438 18.515625 94.378906 19.09375 90.632812 C 26.671875 91.8125 36.359375 86.273438 38.886719 79.15625 C 38.941406 78.953125 38.957031 78.75 38.929688 78.542969 C 38.902344 78.335938 38.839844 78.144531 38.734375 77.960938 C 38.632812 77.78125 38.5 77.625 38.335938 77.496094 C 38.171875 77.371094 37.988281 77.277344 37.789062 77.21875 C 32.535156 76.035156 25.933594 77.71875 21.15625 81.25 C 22.941406 75.066406 25.46875 69.207031 28.746094 63.671875 C 32.023438 58.132812 35.941406 53.09375 40.5 48.550781 C 40.035156 49.199219 39.582031 49.859375 39.179688 50.535156 C 38.6875 51.367188 38.152344 52.3125 38.179688 53.308594 C 38.183594 53.4375 38.199219 53.566406 38.230469 53.691406 L 38.230469 53.722656 C 38.484375 55.375 41.015625 55.78125 42.296875 56.011719 C 45.390625 56.554688 48.503906 56.910156 51.636719 57.089844 C 56.058594 57.421875 60.492188 57.648438 64.925781 57.808594 C 65.007812 59.332031 65.203125 60.839844 65.519531 62.335938 C 65.664062 63.222656 65.875 64.089844 66.152344 64.945312 C 65.625 65.316406 65.15625 65.753906 64.742188 66.25 C 64.328125 66.746094 63.984375 67.285156 63.714844 67.871094 C 63.441406 68.457031 63.25 69.066406 63.140625 69.703125 C 63.027344 70.339844 63 70.980469 63.054688 71.621094 C 63.300781 74.800781 65.273438 78.167969 68.410156 78.878906 C 68.789062 81.824219 69.328125 84.765625 70.320312 87.429688 C 71.539062 90.597656 73.410156 93.316406 75.9375 95.585938 C 76.019531 97.355469 75.734375 99.023438 74.585938 100.28125 C 74.441406 99.566406 74.359375 98.84375 74.34375 98.109375 C 74.335938 97.742188 74.214844 97.421875 73.972656 97.144531 C 73.730469 96.867188 73.429688 96.703125 73.066406 96.648438 C 72.722656 96.5 72.375 96.488281 72.027344 96.613281 C 67.097656 98.199219 62.304688 99.917969 57.921875 102.21875 C 63.925781 97.375 66.191406 86.378906 62.550781 79.769531 C 62.167969 79.074219 61.078125 78.714844 60.394531 79.207031 C 55.75 82.515625 52.527344 89.085938 52.285156 95.296875 C 47.800781 90.589844 40.242188 87.792969 34.445312 89.296875 C 33.679688 89.496094 33.039062 90.441406 33.339844 91.234375 C 36.265625 98.746094 46.214844 105.128906 54.347656 103.546875 C 54.613281 103.722656 54.90625 103.785156 55.222656 103.738281 C 50.542969 106.507812 46.710938 110.164062 43.726562 114.703125 C 37.546875 124.203125 35.632812 135.597656 33.792969 146.632812 C 31.878906 144.703125 30.191406 142.597656 28.730469 140.308594 Z M 55.929688 99.832031 C 54.320312 94.5625 56.648438 87.085938 60.582031 83.144531 C 62.21875 88.46875 60.226562 96.488281 55.917969 99.8125 Z M 52.261719 100.671875 C 46.746094 100.929688 40.054688 96.855469 37.210938 92.070312 C 42.792969 91.769531 50.085938 95.648438 52.25 100.652344 Z M 96.996094 177.136719 C 89.960938 172.996094 83.4375 168.105469 76.953125 163.164062 C 75.339844 161.9375 73.769531 164.691406 75.359375 165.882812 C 80.5 169.796875 85.65625 173.675781 91.070312 177.183594 C 85.648438 177.007812 80.308594 176.257812 75.050781 174.933594 C 69.792969 173.605469 64.734375 171.730469 59.882812 169.3125 C 60.0625 162.125 60.148438 154.941406 60.144531 147.753906 C 60.144531 145.730469 56.996094 145.726562 56.996094 147.753906 C 56.996094 154.390625 56.917969 161.027344 56.765625 167.664062 C 48.929688 163.28125 42.097656 157.679688 36.261719 150.863281 C 38.171875 139.613281 39.632812 127.734375 45.554688 117.746094 C 46.921875 115.378906 48.554688 113.21875 50.460938 111.265625 C 52.371094 109.308594 54.488281 107.617188 56.820312 106.195312 C 61.347656 103.472656 66.355469 101.742188 71.347656 100.121094 C 73.050781 111.277344 86.300781 117.222656 96.667969 116.117188 C 105.574219 115.175781 115.25 108.589844 116.40625 99.160156 C 119.542969 99.617188 122.601562 100.378906 125.582031 101.453125 C 123.84375 107.722656 122.210938 114.015625 120.679688 120.332031 C 120.675781 120.359375 120.675781 120.382812 120.679688 120.410156 C 117.90625 121.574219 117.261719 124.355469 117.152344 127.085938 C 116.585938 127.246094 116.042969 127.460938 115.515625 127.730469 C 112.144531 129.46875 113.082031 132.59375 113.71875 135.558594 C 111.457031 137.308594 110.460938 139.925781 112.652344 143.078125 C 113.144531 143.886719 113.765625 144.570312 114.527344 145.132812 C 112.925781 151.671875 110.828125 158.378906 110.234375 165.042969 C 110.011719 167.507812 110.054688 171.445312 111.953125 173.355469 C 112.640625 174.042969 113.667969 174.226562 114.800781 174.160156 C 108.988281 175.863281 103.054688 176.847656 97 177.117188 Z M 122.875 169.339844 C 122.113281 169.921875 119.816406 169.90625 118.855469 170.082031 C 117.890625 170.257812 115.476562 171.175781 114.527344 170.953125 C 112.425781 170.476562 113.484375 164.042969 113.828125 162.347656 C 114.972656 156.496094 116.503906 150.695312 117.84375 144.882812 C 118.484375 144.476562 119.09375 144.015625 119.835938 143.859375 C 120.566406 143.695312 121.296875 143.679688 122.03125 143.808594 C 120.480469 148.917969 119.691406 154.144531 119.667969 159.484375 C 119.667969 161.261719 119.503906 163.457031 121.339844 164.425781 C 122.488281 165.03125 123.25 164.488281 123.453125 166.1875 C 123.574219 167.140625 123.574219 168.816406 122.878906 169.320312 Z M 126.417969 169.699219 C 126.800781 167.707031 127.117188 164.296875 125.46875 162.738281 C 124.726562 162.035156 123.453125 162.121094 122.859375 161.40625 C 122.207031 160.617188 122.882812 156.707031 122.960938 155.652344 C 123.242188 152.105469 123.886719 148.625 124.898438 145.210938 C 126.710938 146.699219 128.078125 149.066406 129.128906 151.105469 C 128.828125 151.316406 128.632812 151.597656 128.535156 151.945312 C 128.347656 152.183594 128.25 152.453125 128.234375 152.757812 C 128.222656 153.058594 128.296875 153.339844 128.460938 153.59375 C 129.804688 155.882812 131.277344 158.113281 132.835938 160.269531 C 132.875 162.222656 132.917969 164.167969 132.949219 166.113281 C 130.835938 167.410156 128.65625 168.601562 126.421875 169.679688 Z M 168.128906 161.144531 C 168.660156 167.386719 167.367188 177 159.273438 176.800781 C 152.855469 176.65625 147.496094 171.871094 143.195312 167.589844 C 140.523438 164.917969 138.070312 162.0625 135.832031 159.023438 C 135.75 158.863281 135.648438 158.726562 135.519531 158.605469 C 134.375 157.03125 133.285156 155.417969 132.25 153.761719 C 133.648438 153.511719 134.960938 153.023438 136.183594 152.300781 C 137.40625 151.578125 138.464844 150.664062 139.355469 149.558594 C 141.183594 147.269531 141.859375 144.503906 142.152344 141.675781 C 145.332031 144.648438 148.703125 147.382812 152.273438 149.871094 C 152.496094 150.144531 152.769531 150.332031 153.101562 150.441406 C 154.523438 151.414062 155.972656 152.351562 157.453125 153.25 C 159.191406 154.292969 160.777344 151.570312 159.046875 150.53125 C 158.054688 149.929688 157.09375 149.3125 156.128906 148.683594 C 158.132812 146.640625 159.898438 144.410156 161.425781 141.988281 C 164.542969 147.996094 167.542969 154.304688 168.132812 161.125 Z M 164.023438 138.398438 C 166.160156 133.390625 173.429688 129.457031 179.019531 129.707031 C 176.199219 134.503906 169.535156 138.625 164.023438 138.398438 Z M 164.023438 138.398438 " fill-opacity="1" fill-rule="nonzero"/></g><path fill="#3f2622" d="M 94.898438 150.871094 C 91.511719 149.433594 88.667969 147.285156 86.367188 144.421875 C 85.09375 142.847656 82.875 145.085938 84.136719 146.644531 C 86.621094 149.71875 89.679688 152.03125 93.3125 153.589844 C 95.152344 154.367188 96.761719 151.660156 94.898438 150.871094 Z M 94.898438 150.871094 " fill-opacity="1" fill-rule="nonzero"/><path fill="#3f2622" d="M 102.023438 79.140625 C 100.164062 78.90625 98.476562 79.347656 96.761719 79.679688 C 96.617188 79.640625 96.46875 79.628906 96.320312 79.640625 C 96.703125 78.410156 95.441406 76.875 94.082031 77.761719 C 93.242188 78.3125 91.621094 78.4375 91.601562 76.972656 C 91.601562 76.207031 92.558594 74.980469 92.871094 74.339844 C 93.640625 72.917969 94.0625 71.402344 94.132812 69.785156 C 94.175781 67.753906 91.019531 67.753906 90.976562 69.785156 C 90.917969 72.875 87.378906 75.617188 88.597656 78.789062 C 88.65625 78.945312 88.726562 79.09375 88.804688 79.238281 C 87.828125 79.066406 86.84375 79.03125 85.855469 79.140625 C 83.179688 79.484375 81.042969 80.988281 79.53125 83.152344 C 78.644531 84.429688 78.675781 85.339844 79.53125 85.03125 C 79.660156 84.988281 81.246094 84.214844 82.78125 84.835938 C 83.453125 95.84375 102.632812 95.324219 105.148438 84.867188 C 106.292969 84.398438 107.515625 84.890625 107.824219 84.980469 C 109.300781 85.582031 109.351562 84.625 108.335938 83.152344 C 106.835938 80.992188 104.691406 79.484375 102.023438 79.140625 Z M 85.964844 84.410156 C 87.441406 84.507812 88.945312 84.902344 90.40625 85.089844 C 92.753906 85.246094 95.105469 85.246094 97.453125 85.089844 C 98.984375 84.894531 100.511719 84.484375 102.042969 84.398438 C 100.195312 91.332031 86.628906 92.066406 85.972656 84.429688 Z M 85.964844 84.410156 " fill-opacity="1" fill-rule="nonzero"/><path fill="#3f2622" d="M 84.746094 68.527344 C 86.273438 69.871094 88.496094 67.652344 86.976562 66.308594 C 86.3125 65.703125 85.570312 65.222656 84.75 64.863281 C 83.933594 64.5 83.074219 64.277344 82.183594 64.195312 C 81.292969 64.113281 80.410156 64.171875 79.539062 64.375 C 78.664062 64.578125 77.847656 64.914062 77.082031 65.382812 C 75.363281 66.449219 76.945312 69.171875 78.675781 68.101562 C 79.132812 67.800781 79.628906 67.585938 80.164062 67.445312 C 80.695312 67.308594 81.234375 67.261719 81.78125 67.296875 C 82.328125 67.335938 82.855469 67.460938 83.363281 67.671875 C 83.871094 67.882812 84.332031 68.167969 84.746094 68.527344 Z M 84.746094 68.527344 " fill-opacity="1" fill-rule="nonzero"/><path fill="#3f2622" d="M 110.09375 65.382812 C 109.332031 64.914062 108.515625 64.578125 107.640625 64.375 C 106.769531 64.171875 105.886719 64.113281 104.996094 64.195312 C 104.101562 64.277344 103.246094 64.5 102.425781 64.863281 C 101.609375 65.222656 100.867188 65.703125 100.203125 66.308594 C 98.675781 67.652344 100.917969 69.871094 102.433594 68.527344 C 102.847656 68.167969 103.308594 67.882812 103.8125 67.671875 C 104.320312 67.460938 104.847656 67.335938 105.398438 67.296875 C 105.945312 67.261719 106.484375 67.308594 107.015625 67.445312 C 107.546875 67.585938 108.042969 67.800781 108.503906 68.101562 C 110.234375 69.15625 111.816406 66.449219 110.09375 65.382812 Z M 110.09375 65.382812 " fill-opacity="1" fill-rule="nonzero"/></svg>